# xmcd CD database file
#
# Track frame offsets:
#	150
#	13752
#	31123
#	44246
#	67989
#	89052
#	100750
#	114113
#	129962
#	149911
#	166575
#
# Disc length: 2425 seconds
#
# Revision: 0
# Processed by: cddbd v1.5.2PL0 Copyright (c) Steve Scherf et al.
# Submitted via: CDex 1.51
#
DISCID=9009770b
DTITLE=Black Diamond Heavies - A Touch Of Someone Else's Class
DYEAR=2008
DGENRE=Blues
TTITLE0=Nutbush City Limits
TTITLE1=Everything Is Everything
TTITLE2=Numbers 22
TTITLE3=Bidin' My Time
TTITLE4=Take A Ride
TTITLE5=Solid Gold
TTITLE6=Smoothe It Out
TTITLE7=Make Love Time
TTITLE8=Oh, Sinnerman
TTITLE9=Loose Yourself
TTITLE10=Happy Hour
EXTD=YEAR: 2008
EXTT0=
EXTT1=
EXTT2=
EXTT3=
EXTT4=
EXTT5=
EXTT6=
EXTT7=
EXTT8=
EXTT9=
EXTT10=
PLAYORDER=
